<svg class="icon" viewBox="0 0 1024 1024" version="1.1" xmlns="http://www.w3.org/2000/svg"><path d="M1014.465 518.943 516.559 52.933l-1.934-1.813L14.76 517.572c-5.263 4.909-8.292 11.588-8.547 18.796-0.254 7.209 2.322 14.063 7.242 19.327 9.763 10.48 27.664 11.078 38.123 1.326l463.013-432.066 463.036 433.371c5.02 4.688 11.563 7.275 18.42 7.275 7.474 0 14.661-3.118 19.702-8.536C1025.898 546.209 1025.323 529.093 1014.465 518.943zM860.603 527.744c-14.881 0-26.978 12.118-26.978 26.978l0 367.319L646.174 922.041 646.174 664.557 383.028 664.557 383.028 922.04 195.577 922.04 195.577 554.722c0-14.859-12.096-26.978-26.966-26.978s-26.978 12.118-26.978 26.978l0 421.253 295.341 0L436.974 718.491l155.266 0 0 257.482 295.319 0L887.559 554.722C887.559 539.862 875.464 527.744 860.603 527.744zM691.638 187.425l141.987 0 0 125.911c0 14.86 12.097 26.978 26.978 26.978 14.861 0 26.955-12.118 26.955-26.978L887.558 133.491l-195.92 0c-14.882 0-26.979 12.097-26.979 26.956C664.659 175.329 676.756 187.425 691.638 187.425z"></path></svg>