<svg class="icon" viewBox="0 0 1024 1024" version="1.1" xmlns="http://www.w3.org/2000/svg" style="height: 120px; width: 120px;"><path d="M419.997652 36.959738l-44.425792 44.740868a63.015307 63.015307 0 1 0-44.740868 107.441098h31.507654v257.449037c36.706416 12.965399 63.015307 47.986156 63.015307 89.135152v378.091843a94.522961 94.522961 0 0 1-189.045921 0v-378.091843a94.554468 94.554468 0 0 1 63.015307-89.135152V248.061017a126.030614 126.030614 0 1 1 120.674313-211.101279zM677.415181 0.095783a126.030614 126.030614 0 0 1 31.507654 248.059757v198.435201c36.706416 12.965399 63.015307 47.986156 63.015307 89.135152v378.091843a94.522961 94.522961 0 1 1-189.045922 0v-378.091843a94.554468 94.554468 0 0 1 63.015307-89.135152V248.187047A126.030614 126.030614 0 0 1 677.415181 0.095783z m-346.584189 504.122457a31.507654 31.507654 0 0 0-31.507653 31.507653v378.091843a31.507654 31.507654 0 1 0 63.015307 0v-378.091843a31.507654 31.507654 0 0 0-31.507654-31.507653z m346.584189 0a31.507654 31.507654 0 0 0-31.507654 31.507653v378.091843a31.507654 31.507654 0 1 0 63.015308 0v-378.091843a31.507654 31.507654 0 0 0-31.507654-31.507653z m0-441.10715a63.015307 63.015307 0 1 0 0 126.030614 63.015307 63.015307 0 0 0 0-126.030614z" fill="#000000"></path></svg>