<?xml version="1.0" standalone="no"?><!DOCTYPE svg PUBLIC "-//W3C//DTD SVG 1.1//EN" "http://www.w3.org/Graphics/SVG/1.1/DTD/svg11.dtd"><svg t="1681452893355" class="icon" viewBox="0 0 1024 1024" version="1.1" xmlns="http://www.w3.org/2000/svg" p-id="37477" xmlns:xlink="http://www.w3.org/1999/xlink" width="200" height="200"><path d="M512 1024C230.4 1024 0 793.6 0 512S230.4 0 512 0s512 230.4 512 512-230.4 512-512 512z" fill="#F7BE15" p-id="37478"></path><path d="M1024 512c0-31.008-2.952-61.352-8.296-90.88l-232.688-26.376-122.344-0.224c-4.76-20.672-74.256-37.096-159.52-37.096-84.456 0-153.464 16.104-159.392 36.496l-101.144-0.184v346.968l28.44 1.008 4.064 69.32 216.944 212.4c7.28 0.312 14.576 0.56 21.936 0.56C793.6 1024 1024 793.6 1024 512z" fill="#DB8E1F" p-id="37479"></path><path d="M244.488 393.12h538.8v345.6h-538.8z" fill="#DACEB6" p-id="37480"></path><path d="M783.264 745.152H244.488a6.378 6.378 0 0 1-6.376-6.376V393.144a6.378 6.378 0 0 1 6.376-6.376h538.776a6.378 6.378 0 0 1 6.376 6.376v345.632a6.378 6.378 0 0 1-6.376 6.376m-532.4-12.752h526.024V399.512H250.864V732.4z" fill="#474341" p-id="37481"></path><path d="M603.872 690.296H306.984c-12.528 0-22.784-10.248-22.784-22.784V456.048c0-12.528 10.248-22.784 22.784-22.784h296.888c12.528 0 22.784 10.248 22.784 22.784v211.464c0 12.536-10.256 22.784-22.784 22.784" fill="#FDFBF8" p-id="37482"></path><path d="M533.576 694.952H323.272c-23.48 0-42.584-19.096-42.584-42.584v-183.184c0-14.12 7.032-27.312 18.808-35.28a4.468 4.468 0 0 1 6.2 1.192 4.476 4.476 0 0 1-1.192 6.2c-9.328 6.304-14.896 16.728-14.896 27.888v183.184c0 18.568 15.096 33.664 33.664 33.664h210.304c2.472 0 4.464 1.992 4.464 4.464a4.464 4.464 0 0 1-4.464 4.456M593.008 694.952c-2.472 0-4.464-1.992-4.464-4.464s1.992-4.464 4.464-4.464c18.568 0 33.664-15.096 33.664-33.664v-183.176c0-18.56-15.096-33.656-33.664-33.656h-255.76a4.46 4.46 0 0 1-4.464-4.464 4.46 4.46 0 0 1 4.464-4.464h255.76c23.48 0 42.584 19.096 42.584 42.584v183.184c0 23.48-19.104 42.584-42.584 42.584" fill="#474341" p-id="37483"></path><path d="M742.96 691.048h-72.04a9.076 9.076 0 0 1-9.048-9.048V443.816a9.076 9.076 0 0 1 9.048-9.048h72.04a9.076 9.076 0 0 1 9.048 9.048V682a9.076 9.076 0 0 1-9.048 9.048" fill="#8B7A5C" p-id="37484"></path><path d="M661.728 620.928a4.456 4.456 0 0 1-4.464-4.464v-167.848c0-10.624 8.648-19.272 19.28-19.272h56.328c10.624 0 19.272 8.648 19.272 19.272v30.296a4.456 4.456 0 0 1-4.464 4.464 4.46 4.46 0 0 1-4.464-4.464v-30.296a10.364 10.364 0 0 0-10.352-10.352h-56.328a10.364 10.364 0 0 0-10.352 10.352v167.848a4.444 4.444 0 0 1-4.456 4.464M732.88 695.44h-56.328c-10.624 0-19.28-8.648-19.28-19.28v-37.536c0-2.472 1.992-4.464 4.464-4.464s4.464 1.992 4.464 4.464v37.536a10.364 10.364 0 0 0 10.352 10.352h56.328a10.364 10.364 0 0 0 10.352-10.352v-144.512c0-2.472 1.992-4.464 4.464-4.464a4.46 4.46 0 0 1 4.464 4.464v144.512c-0.008 10.632-8.656 19.28-19.28 19.28" fill="#474341" p-id="37485"></path><path d="M683.392 593.872h-19.576c-2.472 0-4.464-1.992-4.464-4.464s1.992-4.464 4.464-4.464h19.576c2.472 0 4.464 1.992 4.464 4.464s-1.992 4.464-4.464 4.464M747.368 593.872h-35.536c-2.472 0-4.464-1.992-4.464-4.464s1.992-4.464 4.464-4.464h35.536a4.466 4.466 0 0 1 0 8.928M662.624 620.84a4.472 4.472 0 0 1-4.464-4.424 4.464 4.464 0 0 1 4.424-4.496l82.52-0.728h0.04c2.448 0 4.432 1.976 4.464 4.424a4.464 4.464 0 0 1-4.424 4.496l-82.52 0.728h-0.04zM747.656 646.36h-0.008l-52.76-0.104a4.454 4.454 0 0 1-4.448-4.472 4.458 4.458 0 0 1 4.464-4.448h0.008l52.76 0.104c2.472 0.008 4.464 2 4.448 4.472a4.468 4.468 0 0 1-4.464 4.448M664.04 673.496a4.47 4.47 0 0 1-4.464-4.384 4.454 4.454 0 0 1 4.384-4.536l82.256-1.416c2.368-0.352 4.496 1.928 4.536 4.384a4.46 4.46 0 0 1-4.384 4.544l-82.256 1.416h-0.072v-0.008z" fill="#474341" p-id="37486"></path><path d="M719.496 691.728a4.46 4.46 0 0 1-4.464-4.464l-0.024-115.328a4.466 4.466 0 0 1 8.928 0l0.024 115.328a4.47 4.47 0 0 1-4.464 4.464M692.744 691.728a4.456 4.456 0 0 1-4.464-4.464v-115.232c0-2.472 1.992-4.464 4.464-4.464s4.464 1.992 4.464 4.464v115.24a4.46 4.46 0 0 1-4.464 4.456" fill="#474341" p-id="37487"></path><path d="M721 469.384a16.52 16.52 0 1 1-33.04 0 16.52 16.52 0 0 1 33.04 0" fill="#F7BE15" p-id="37488"></path><path d="M704.488 490.36c-11.56 0-20.984-9.416-20.984-20.984 0-11.56 9.416-20.976 20.984-20.976s20.984 9.416 20.984 20.976c-0.008 11.568-9.424 20.984-20.984 20.984m0-33.032c-6.648 0-12.056 5.408-12.056 12.056s5.408 12.056 12.056 12.056 12.056-5.416 12.056-12.056a12.07 12.07 0 0 0-12.056-12.056" fill="#474341" p-id="37489"></path><path d="M721 517.672a16.52 16.52 0 1 1-33.04 0 16.52 16.52 0 0 1 33.04 0" fill="#EC6646" p-id="37490"></path><path d="M704.488 538.648c-11.56 0-20.984-9.416-20.984-20.984 0-11.56 9.416-20.976 20.984-20.976s20.984 9.416 20.984 20.976c-0.008 11.576-9.424 20.984-20.984 20.984m0-33.032c-6.648 0-12.056 5.408-12.056 12.056s5.408 12.056 12.056 12.056 12.056-5.416 12.056-12.056a12.07 12.07 0 0 0-12.056-12.056" fill="#474341" p-id="37491"></path><path d="M274.352 738.456v66.712h21.256c-0.08-0.96-0.288-1.88-0.288-2.856 0-19.392 15.872-35.264 35.256-35.264h362.152c19.392 0 35.264 15.872 35.264 35.264 0 0.976-0.216 1.896-0.288 2.856h21.256v-66.712H274.352z" fill="#F3D8C2" p-id="37492"></path><path d="M748.952 811.544h-21.248c-1.784 0-3.48-0.744-4.688-2.056a6.436 6.436 0 0 1-1.664-4.848l0.168-1.44c0.096-16.816-12.864-29.776-28.792-29.776H330.576c-15.928 0-28.88 12.96-28.88 28.888l0.256 2.328a6.4 6.4 0 0 1-1.656 4.848 6.394 6.394 0 0 1-4.688 2.056h-21.256a6.378 6.378 0 0 1-6.376-6.376v-66.712a6.378 6.378 0 0 1 6.376-6.376H748.96a6.378 6.378 0 0 1 6.376 6.376v66.712a6.384 6.384 0 0 1-6.384 6.376m-14.728-12.752h8.36v-53.96H280.72v53.96h8.368c1.792-21.312 19.712-38.12 41.48-38.12H692.72c21.784 0 39.712 16.8 41.504 38.12" fill="#474341" p-id="37493"></path><path d="M346.144 389.328c0-17.544 68.84-31.768 153.752-31.768 84.92 0 153.76 14.224 153.76 31.768" fill="#F4EDDD" p-id="37494"></path><path d="M653.648 393.792a4.456 4.456 0 0 1-4.464-4.464c0-11.136-58.16-27.312-149.296-27.312s-149.296 16.176-149.296 27.312a4.46 4.46 0 0 1-4.464 4.464 4.46 4.46 0 0 1-4.464-4.464c0-26.584 94.624-36.232 158.216-36.232s158.216 9.656 158.216 36.232a4.436 4.436 0 0 1-4.448 4.464" fill="#474341" p-id="37495"></path><path d="M372.832 238.752a10.8 10.8 0 1 1-21.6 0 10.8 10.8 0 0 1 21.6 0" fill="#8B7A5C" p-id="37496"></path><path d="M362.032 254.008c-8.408 0-15.264-6.848-15.264-15.256 0-8.416 6.856-15.264 15.264-15.264s15.264 6.848 15.264 15.264c0 8.408-6.856 15.256-15.264 15.256m0-21.6a6.348 6.348 0 0 0-6.344 6.344c0 3.496 2.848 6.336 6.344 6.336s6.344-2.84 6.344-6.336a6.348 6.348 0 0 0-6.344-6.344" fill="#474341" p-id="37497"></path><path d="M464.328 360.752a4.452 4.452 0 0 1-3.384-1.552l-94.04-109.288c-1.6-1.856-1.392-4.68 0.472-6.288a4.438 4.438 0 0 1 6.288 0.472l94.04 109.288c1.608 1.864 1.4 4.68-0.472 6.288-0.84 0.736-1.872 1.08-2.904 1.08" fill="#474341" p-id="37498"></path><path d="M628.88 264.8a10.8 10.8 0 1 1 0-21.6 10.8 10.8 0 0 1 0 21.6" fill="#8B7A5C" p-id="37499"></path><path d="M628.88 269.264c-8.408 0-15.264-6.848-15.264-15.256 0-8.416 6.856-15.264 15.264-15.264s15.264 6.848 15.264 15.264c0 8.408-6.856 15.256-15.264 15.256m0-21.608a6.348 6.348 0 0 0-6.344 6.344c0 3.496 2.848 6.336 6.344 6.336s6.344-2.84 6.344-6.336-2.848-6.344-6.344-6.344" fill="#474341" p-id="37500"></path><path d="M511.344 360.752a4.452 4.452 0 0 1-3.384-1.552c-1.608-1.864-1.4-4.68 0.472-6.288l109.28-94.032c1.856-1.616 4.68-1.4 6.288 0.472 1.6 1.864 1.392 4.68-0.472 6.288l-109.28 94.032c-0.84 0.736-1.872 1.08-2.904 1.08M433.608 531.592c-12.272 0-18.512-6.944-24.544-13.656-6.272-6.968-12.184-13.56-24.376-13.56-12.2 0-18.112 6.592-24.376 13.552-6.032 6.712-12.272 13.664-24.552 13.664s-18.52-6.944-24.552-13.656c-6.232-6.92-12.104-13.456-24.136-13.552a4.5 4.5 0 0 1 0.032-9h0.04c15.992 0.136 24.168 9.224 30.744 16.528 5.576 6.2 9.592 10.672 17.872 10.672 8.272 0 12.296-4.48 17.856-10.672 6.632-7.368 14.864-16.536 31.064-16.536s24.432 9.168 31.056 16.528c5.584 6.208 9.608 10.68 17.872 10.68 8.272 0 12.296-4.48 17.872-10.672 6.632-7.368 14.864-16.536 31.064-16.536 12.904 0 20.6 5.88 25.848 10.992a4.5 4.5 0 0 1 0.088 6.36c-1.752 1.784-4.592 1.824-6.352 0.088-4.296-4.176-9.968-8.448-19.584-8.448-12.192 0-18.112 6.592-24.368 13.552-6.048 6.72-12.288 13.672-24.568 13.672M531.48 531.592c-10.2 0-13.856-3.552-18.488-8.048-0.936-0.912-1.96-1.904-3.144-2.96a4.496 4.496 0 1 1 5.984-6.712c1.288 1.152 2.4 2.224 3.416 3.216 4.128 4.008 5.672 5.504 12.224 5.504 6.384 0 8.656-2.144 13.624-6.832 1.384-1.296 2.888-2.728 4.648-4.24a4.498 4.498 0 0 1 6.344 0.456c1.624 1.88 1.424 4.712-0.464 6.344-1.648 1.432-3.064 2.768-4.368 3.984-5.48 5.192-9.824 9.288-19.776 9.288M629.128 531.592h-0.04c-12.12-0.104-18.312-7-24.304-13.664-6.264-6.96-12.176-13.552-24.376-13.552-5.168 0-9.648 1.224-13.68 3.72a4.51 4.51 0 0 1-6.192-1.448 4.5 4.5 0 0 1 1.448-6.192c5.512-3.416 11.544-5.072 18.424-5.072 16.2 0 24.44 9.168 31.056 16.528 5.544 6.168 9.536 10.616 17.696 10.68a4.506 4.506 0 0 1 4.464 4.536 4.504 4.504 0 0 1-4.496 4.464M434.568 583.056c-12.28 0-18.52-6.944-24.552-13.656-5.992-6.672-12.168-13.56-24.376-13.56-12.184 0-18.104 6.592-24.368 13.552-6.04 6.712-12.28 13.664-24.56 13.664s-18.52-6.944-24.552-13.664c-5.944-6.608-12.08-13.456-24.128-13.544a4.5 4.5 0 0 1 0.032-9h0.04c16 0.12 24.176 9.224 30.744 16.528 5.568 6.2 9.584 10.672 17.856 10.672 8.272 0 12.296-4.48 17.872-10.672 6.632-7.368 14.864-16.536 31.056-16.536 16.208 0 24.448 9.168 31.064 16.536 5.576 6.2 9.592 10.672 17.872 10.672 8.272 0 12.296-4.48 17.872-10.672 1.664-1.856 4.536-2.008 6.352-0.344 1.848 1.664 2 4.504 0.344 6.352-6.048 6.728-12.296 13.672-24.568 13.672" fill="#474341" p-id="37501"></path></svg>